<?xml version="1.0" encoding="UTF-8" standalone="no"?>
<!DOCTYPE svg PUBLIC "-//W3C//DTD SVG 1.1//EN"
 "http://www.w3.org/Graphics/SVG/1.1/DTD/svg11.dtd">
<!-- Generated by graphviz version 2.49.3 (20211027.1534)
 -->
<!-- Title: multimap.hpp Pages: 1 -->
<svg width="491pt" height="252pt"
 viewBox="0.00 0.00 490.50 252.00" xmlns="http://www.w3.org/2000/svg" xmlns:xlink="http://www.w3.org/1999/xlink">
<g id="graph0" class="graph" transform="scale(1 1) rotate(0) translate(4 248)">
<title>multimap.hpp</title>
<!-- Node1 -->
<g id="node1" class="node">
<title>Node1</title>
<g id="a_node1"><a xlink:title=" ">
<polygon fill="#bfbfbf" stroke="black" points="78.5,-224.5 78.5,-243.5 152.5,-243.5 152.5,-224.5 78.5,-224.5"/>
<text text-anchor="middle" x="115.5" y="-231.5" font-family="Helvetica,sans-Serif" font-size="10.00">multimap.hpp</text>
</a>
</g>
</g>
<!-- Node2 -->
<g id="node2" class="node">
<title>Node2</title>
<g id="a_node2"><a xlink:href="rbtree_8hpp.html" target="_top" xlink:title=" ">
<polygon fill="none" stroke="black" points="86,-168.5 86,-187.5 145,-187.5 145,-168.5 86,-168.5"/>
<text text-anchor="middle" x="115.5" y="-175.5" font-family="Helvetica,sans-Serif" font-size="10.00">rbtree.hpp</text>
</a>
</g>
</g>
<!-- Node1&#45;&gt;Node2 -->
<g id="edge1" class="edge">
<title>Node1&#45;&gt;Node2</title>
<path fill="none" stroke="midnightblue" d="M115.5,-224.08C115.5,-217.01 115.5,-206.86 115.5,-197.99"/>
<polygon fill="midnightblue" stroke="midnightblue" points="119,-197.75 115.5,-187.75 112,-197.75 119,-197.75"/>
</g>
<!-- Node3 -->
<g id="node3" class="node">
<title>Node3</title>
<g id="a_node3"><a xlink:title=" ">
<polygon fill="none" stroke="#bfbfbf" points="0,-112.5 0,-131.5 49,-131.5 49,-112.5 0,-112.5"/>
<text text-anchor="middle" x="24.5" y="-119.5" font-family="Helvetica,sans-Serif" font-size="10.00">cassert</text>
</a>
</g>
</g>
<!-- Node2&#45;&gt;Node3 -->
<g id="edge2" class="edge">
<title>Node2&#45;&gt;Node3</title>
<path fill="none" stroke="midnightblue" d="M100.88,-168.32C86.55,-159.82 64.49,-146.73 47.75,-136.8"/>
<polygon fill="midnightblue" stroke="midnightblue" points="49.47,-133.75 39.08,-131.65 45.9,-139.77 49.47,-133.75"/>
</g>
<!-- Node4 -->
<g id="node4" class="node">
<title>Node4</title>
<g id="a_node4"><a xlink:title=" ">
<polygon fill="none" stroke="#bfbfbf" points="29,-56.5 29,-75.5 80,-75.5 80,-56.5 29,-56.5"/>
<text text-anchor="middle" x="54.5" y="-63.5" font-family="Helvetica,sans-Serif" font-size="10.00">memory</text>
</a>
</g>
</g>
<!-- Node2&#45;&gt;Node4 -->
<g id="edge3" class="edge">
<title>Node2&#45;&gt;Node4</title>
<path fill="none" stroke="midnightblue" d="M110.71,-168.37C100.74,-150.38 77.54,-108.55 64.27,-84.63"/>
<polygon fill="midnightblue" stroke="midnightblue" points="67.17,-82.64 59.26,-75.59 61.05,-86.03 67.17,-82.64"/>
</g>
<!-- Node5 -->
<g id="node5" class="node">
<title>Node5</title>
<g id="a_node5"><a xlink:title=" ">
<polygon fill="none" stroke="#bfbfbf" points="227,-112.5 227,-131.5 286,-131.5 286,-112.5 227,-112.5"/>
<text text-anchor="middle" x="256.5" y="-119.5" font-family="Helvetica,sans-Serif" font-size="10.00">memory.h</text>
</a>
</g>
</g>
<!-- Node2&#45;&gt;Node5 -->
<g id="edge4" class="edge">
<title>Node2&#45;&gt;Node5</title>
<path fill="none" stroke="midnightblue" d="M137.84,-168.44C161.25,-159.48 198.24,-145.31 224.69,-135.18"/>
<polygon fill="midnightblue" stroke="midnightblue" points="226.18,-138.36 234.26,-131.52 223.67,-131.82 226.18,-138.36"/>
</g>
<!-- Node6 -->
<g id="node6" class="node">
<title>Node6</title>
<g id="a_node6"><a xlink:href="iterator_8hpp.html" target="_top" xlink:title=" ">
<polygon fill="none" stroke="black" points="144,-112.5 144,-131.5 209,-131.5 209,-112.5 144,-112.5"/>
<text text-anchor="middle" x="176.5" y="-119.5" font-family="Helvetica,sans-Serif" font-size="10.00">iterator.hpp</text>
</a>
</g>
</g>
<!-- Node2&#45;&gt;Node6 -->
<g id="edge5" class="edge">
<title>Node2&#45;&gt;Node6</title>
<path fill="none" stroke="midnightblue" d="M125.3,-168.32C134.32,-160.34 147.91,-148.31 158.82,-138.65"/>
<polygon fill="midnightblue" stroke="midnightblue" points="161.35,-141.08 166.52,-131.83 156.71,-135.84 161.35,-141.08"/>
</g>
<!-- Node7 -->
<g id="node7" class="node">
<title>Node7</title>
<g id="a_node7"><a xlink:href="type__traits_8hpp.html" target="_top" xlink:title=" ">
<polygon fill="none" stroke="black" points="98.5,-56.5 98.5,-75.5 178.5,-75.5 178.5,-56.5 98.5,-56.5"/>
<text text-anchor="middle" x="138.5" y="-63.5" font-family="Helvetica,sans-Serif" font-size="10.00">type_traits.hpp</text>
</a>
</g>
</g>
<!-- Node2&#45;&gt;Node7 -->
<g id="edge11" class="edge">
<title>Node2&#45;&gt;Node7</title>
<path fill="none" stroke="midnightblue" d="M117.3,-168.37C121.02,-150.62 129.58,-109.67 134.61,-85.6"/>
<polygon fill="midnightblue" stroke="midnightblue" points="138.08,-86.1 136.7,-75.59 131.23,-84.66 138.08,-86.1"/>
</g>
<!-- Node6&#45;&gt;Node4 -->
<g id="edge6" class="edge">
<title>Node6&#45;&gt;Node4</title>
<path fill="none" stroke="midnightblue" d="M157.17,-112.44C137.18,-103.6 105.76,-89.69 82.94,-79.59"/>
<polygon fill="midnightblue" stroke="midnightblue" points="84.3,-76.36 73.74,-75.52 81.47,-82.76 84.3,-76.36"/>
</g>
<!-- Node6&#45;&gt;Node7 -->
<g id="edge7" class="edge">
<title>Node6&#45;&gt;Node7</title>
<path fill="none" stroke="midnightblue" d="M170.23,-112.08C164.86,-104.46 156.98,-93.26 150.42,-83.94"/>
<polygon fill="midnightblue" stroke="midnightblue" points="153.28,-81.91 144.66,-75.75 147.55,-85.94 153.28,-81.91"/>
</g>
<!-- Node9 -->
<g id="node9" class="node">
<title>Node9</title>
<g id="a_node9"><a xlink:href="reverse__iterator_8hpp.html" target="_top" xlink:title=" ">
<polygon fill="none" stroke="black" points="197,-56.5 197,-75.5 332,-75.5 332,-56.5 197,-56.5"/>
<text text-anchor="middle" x="264.5" y="-63.5" font-family="Helvetica,sans-Serif" font-size="10.00">iterator/reverse_iterator.hpp</text>
</a>
</g>
</g>
<!-- Node6&#45;&gt;Node9 -->
<g id="edge9" class="edge">
<title>Node6&#45;&gt;Node9</title>
<path fill="none" stroke="midnightblue" d="M190.64,-112.32C204.37,-103.9 225.44,-90.97 241.56,-81.07"/>
<polygon fill="midnightblue" stroke="midnightblue" points="243.7,-83.87 250.4,-75.65 240.04,-77.9 243.7,-83.87"/>
</g>
<!-- Node10 -->
<g id="node10" class="node">
<title>Node10</title>
<g id="a_node10"><a xlink:href="normal__iterator_8hpp.html" target="_top" xlink:title=" ">
<polygon fill="none" stroke="black" points="350.5,-56.5 350.5,-75.5 482.5,-75.5 482.5,-56.5 350.5,-56.5"/>
<text text-anchor="middle" x="416.5" y="-63.5" font-family="Helvetica,sans-Serif" font-size="10.00">iterator/normal_iterator.hpp</text>
</a>
</g>
</g>
<!-- Node6&#45;&gt;Node10 -->
<g id="edge10" class="edge">
<title>Node6&#45;&gt;Node10</title>
<path fill="none" stroke="midnightblue" d="M209.12,-113.66C250.19,-104.42 321.1,-88.47 368.4,-77.82"/>
<polygon fill="midnightblue" stroke="midnightblue" points="369.42,-81.18 378.41,-75.57 367.88,-74.35 369.42,-81.18"/>
</g>
<!-- Node8 -->
<g id="node8" class="node">
<title>Node8</title>
<g id="a_node8"><a xlink:title=" ">
<polygon fill="none" stroke="#bfbfbf" points="114,-0.5 114,-19.5 163,-19.5 163,-0.5 114,-0.5"/>
<text text-anchor="middle" x="138.5" y="-7.5" font-family="Helvetica,sans-Serif" font-size="10.00">cstddef</text>
</a>
</g>
</g>
<!-- Node7&#45;&gt;Node8 -->
<g id="edge8" class="edge">
<title>Node7&#45;&gt;Node8</title>
<path fill="none" stroke="midnightblue" d="M138.5,-56.08C138.5,-49.01 138.5,-38.86 138.5,-29.99"/>
<polygon fill="midnightblue" stroke="midnightblue" points="142,-29.75 138.5,-19.75 135,-29.75 142,-29.75"/>
</g>
</g>
</svg>
