<?xml version="1.0" encoding="UTF-8" standalone="no"?>
<!DOCTYPE svg PUBLIC "-//W3C//DTD SVG 1.1//EN"
 "http://www.w3.org/Graphics/SVG/1.1/DTD/svg11.dtd">
<!-- Generated by graphviz version 2.49.3 (20211027.1534)
 -->
<!-- Title: normal_iterator.hpp Pages: 1 -->
<svg width="455pt" height="252pt"
 viewBox="0.00 0.00 455.11 252.00" xmlns="http://www.w3.org/2000/svg" xmlns:xlink="http://www.w3.org/1999/xlink">
<g id="graph0" class="graph" transform="scale(1 1) rotate(0) translate(4 248)">
<title>normal_iterator.hpp</title>
<!-- Node1 -->
<g id="node1" class="node">
<title>Node1</title>
<g id="a_node1"><a xlink:title=" ">
<polygon fill="#bfbfbf" stroke="black" points="157.61,-224.5 157.61,-243.5 256.61,-243.5 256.61,-224.5 157.61,-224.5"/>
<text text-anchor="middle" x="207.11" y="-231.5" font-family="Helvetica,sans-Serif" font-size="10.00">normal_iterator.hpp</text>
</a>
</g>
</g>
<!-- Node2 -->
<g id="node2" class="node">
<title>Node2</title>
<g id="a_node2"><a xlink:href="iterator_8hpp.html" target="_top" xlink:title=" ">
<polygon fill="none" stroke="black" points="174.61,-168.5 174.61,-187.5 239.61,-187.5 239.61,-168.5 174.61,-168.5"/>
<text text-anchor="middle" x="207.11" y="-175.5" font-family="Helvetica,sans-Serif" font-size="10.00">iterator.hpp</text>
</a>
</g>
</g>
<!-- Node1&#45;&gt;Node2 -->
<g id="edge1" class="edge">
<title>Node1&#45;&gt;Node2</title>
<path fill="none" stroke="midnightblue" d="M207.11,-213.8C207.11,-204.91 207.11,-194.78 207.11,-187.75"/>
<polygon fill="midnightblue" stroke="midnightblue" points="203.61,-214.08 207.11,-224.08 210.61,-214.08 203.61,-214.08"/>
</g>
<!-- Node3 -->
<g id="node3" class="node">
<title>Node3</title>
<g id="a_node3"><a xlink:href="algorithm_8hpp.html" target="_top" xlink:title=" ">
<polygon fill="none" stroke="black" points="72.11,-112.5 72.11,-131.5 146.11,-131.5 146.11,-112.5 72.11,-112.5"/>
<text text-anchor="middle" x="109.11" y="-119.5" font-family="Helvetica,sans-Serif" font-size="10.00">algorithm.hpp</text>
</a>
</g>
</g>
<!-- Node2&#45;&gt;Node3 -->
<g id="edge2" class="edge">
<title>Node2&#45;&gt;Node3</title>
<path fill="none" stroke="midnightblue" d="M182.52,-163.45C164.43,-153.48 140.37,-140.23 124.81,-131.65"/>
<polygon fill="midnightblue" stroke="midnightblue" points="180.91,-166.56 191.36,-168.32 184.29,-160.43 180.91,-166.56"/>
</g>
<!-- Node4 -->
<g id="node4" class="node">
<title>Node4</title>
<g id="a_node4"><a xlink:href="deque_8hpp.html" target="_top" xlink:title=" ">
<polygon fill="none" stroke="black" points="69.61,-0.5 69.61,-19.5 130.61,-19.5 130.61,-0.5 69.61,-0.5"/>
<text text-anchor="middle" x="100.11" y="-7.5" font-family="Helvetica,sans-Serif" font-size="10.00">deque.hpp</text>
</a>
</g>
</g>
<!-- Node2&#45;&gt;Node4 -->
<g id="edge12" class="edge">
<title>Node2&#45;&gt;Node4</title>
<path fill="none" stroke="midnightblue" d="M164.13,-172.54C129.76,-167.29 81.63,-156 46.11,-132 20.11,-114.43 13.2,-105.71 3.11,-76 0.25,-67.58 -1.68,-63.49 3.11,-56 17.59,-33.31 46.79,-21.89 69.38,-16.25"/>
<polygon fill="midnightblue" stroke="midnightblue" points="163.93,-176.05 174.32,-173.99 164.91,-169.12 163.93,-176.05"/>
</g>
<!-- Node5 -->
<g id="node5" class="node">
<title>Node5</title>
<g id="a_node5"><a xlink:href="list_8hpp.html" target="_top" xlink:title=" ">
<polygon fill="none" stroke="black" points="166.61,-56.5 166.61,-75.5 213.61,-75.5 213.61,-56.5 166.61,-56.5"/>
<text text-anchor="middle" x="190.11" y="-63.5" font-family="Helvetica,sans-Serif" font-size="10.00">list.hpp</text>
</a>
</g>
</g>
<!-- Node2&#45;&gt;Node5 -->
<g id="edge13" class="edge">
<title>Node2&#45;&gt;Node5</title>
<path fill="none" stroke="midnightblue" d="M200.82,-158.66C198.31,-150.58 195.65,-140.91 194.11,-132 190.67,-112.17 190.08,-88.49 190.04,-75.9"/>
<polygon fill="midnightblue" stroke="midnightblue" points="197.49,-159.75 203.93,-168.17 204.15,-157.58 197.49,-159.75"/>
</g>
<!-- Node6 -->
<g id="node6" class="node">
<title>Node6</title>
<g id="a_node6"><a xlink:href="stack_8hpp.html" target="_top" xlink:title=" ">
<polygon fill="none" stroke="black" points="12.61,-56.5 12.61,-75.5 71.61,-75.5 71.61,-56.5 12.61,-56.5"/>
<text text-anchor="middle" x="42.11" y="-63.5" font-family="Helvetica,sans-Serif" font-size="10.00">stack.hpp</text>
</a>
</g>
</g>
<!-- Node2&#45;&gt;Node6 -->
<g id="edge16" class="edge">
<title>Node2&#45;&gt;Node6</title>
<path fill="none" stroke="midnightblue" d="M164.47,-174.01C132.6,-169.59 90.06,-158.69 63.11,-132 47.6,-116.64 43.54,-89.78 42.48,-75.89"/>
<polygon fill="midnightblue" stroke="midnightblue" points="164.06,-177.49 174.41,-175.24 164.91,-170.54 164.06,-177.49"/>
</g>
<!-- Node7 -->
<g id="node7" class="node">
<title>Node7</title>
<g id="a_node7"><a xlink:href="vector_8hpp.html" target="_top" xlink:title=" ">
<polygon fill="none" stroke="black" points="243.11,-0.5 243.11,-19.5 305.11,-19.5 305.11,-0.5 243.11,-0.5"/>
<text text-anchor="middle" x="274.11" y="-7.5" font-family="Helvetica,sans-Serif" font-size="10.00">vector.hpp</text>
</a>
</g>
</g>
<!-- Node2&#45;&gt;Node7 -->
<g id="edge18" class="edge">
<title>Node2&#45;&gt;Node7</title>
<path fill="none" stroke="midnightblue" d="M249.13,-165.03C267.67,-157.96 288.51,-147.32 303.11,-132 321.66,-112.52 320.9,-102.4 326.11,-76 327.83,-67.28 329.8,-64.08 326.11,-56 318.71,-39.82 302.31,-27.23 289.89,-19.53"/>
<polygon fill="midnightblue" stroke="midnightblue" points="247.92,-161.74 239.69,-168.4 250.28,-168.33 247.92,-161.74"/>
</g>
<!-- Node8 -->
<g id="node8" class="node">
<title>Node8</title>
<g id="a_node8"><a xlink:href="construct_8hpp.html" target="_top" xlink:title=" ">
<polygon fill="none" stroke="black" points="202.61,-112.5 202.61,-131.5 277.61,-131.5 277.61,-112.5 202.61,-112.5"/>
<text text-anchor="middle" x="240.11" y="-119.5" font-family="Helvetica,sans-Serif" font-size="10.00">construct.hpp</text>
</a>
</g>
</g>
<!-- Node2&#45;&gt;Node8 -->
<g id="edge7" class="edge">
<title>Node2&#45;&gt;Node8</title>
<path fill="none" stroke="midnightblue" d="M217.94,-159.27C223.58,-150.05 230.22,-139.17 234.76,-131.75"/>
<polygon fill="midnightblue" stroke="midnightblue" points="214.78,-157.73 212.56,-168.08 220.76,-161.38 214.78,-157.73"/>
</g>
<!-- Node9 -->
<g id="node9" class="node">
<title>Node9</title>
<g id="a_node9"><a xlink:href="uninitialized_8hpp.html" target="_top" xlink:title=" ">
<polygon fill="none" stroke="black" points="231.61,-56.5 231.61,-75.5 316.61,-75.5 316.61,-56.5 231.61,-56.5"/>
<text text-anchor="middle" x="274.11" y="-63.5" font-family="Helvetica,sans-Serif" font-size="10.00">uninitialized.hpp</text>
</a>
</g>
</g>
<!-- Node2&#45;&gt;Node9 -->
<g id="edge17" class="edge">
<title>Node2&#45;&gt;Node9</title>
<path fill="none" stroke="midnightblue" d="M246.79,-164.58C262.2,-157.59 278.25,-147.15 287.11,-132 297.68,-113.92 286.65,-88.69 279.39,-75.62"/>
<polygon fill="midnightblue" stroke="midnightblue" points="245.25,-161.43 237.35,-168.49 247.93,-167.89 245.25,-161.43"/>
</g>
<!-- Node10 -->
<g id="node10" class="node">
<title>Node10</title>
<g id="a_node10"><a xlink:href="rbtree_8hpp.html" target="_top" xlink:title=" ">
<polygon fill="none" stroke="black" points="376.61,-112.5 376.61,-131.5 435.61,-131.5 435.61,-112.5 376.61,-112.5"/>
<text text-anchor="middle" x="406.11" y="-119.5" font-family="Helvetica,sans-Serif" font-size="10.00">rbtree.hpp</text>
</a>
</g>
</g>
<!-- Node2&#45;&gt;Node10 -->
<g id="edge14" class="edge">
<title>Node2&#45;&gt;Node10</title>
<path fill="none" stroke="midnightblue" d="M248.42,-165.79C286.59,-155.43 342.38,-140.29 376.35,-131.08"/>
<polygon fill="midnightblue" stroke="midnightblue" points="247.37,-162.45 238.64,-168.44 249.21,-169.2 247.37,-162.45"/>
</g>
<!-- Node3&#45;&gt;Node4 -->
<g id="edge3" class="edge">
<title>Node3&#45;&gt;Node4</title>
<path fill="none" stroke="midnightblue" d="M107.58,-102.35C105.61,-78.25 102.26,-37.31 100.81,-19.59"/>
<polygon fill="midnightblue" stroke="midnightblue" points="104.1,-102.69 108.4,-112.37 111.07,-102.12 104.1,-102.69"/>
</g>
<!-- Node3&#45;&gt;Node5 -->
<g id="edge4" class="edge">
<title>Node3&#45;&gt;Node5</title>
<path fill="none" stroke="midnightblue" d="M130.67,-106.62C145.47,-96.76 164.62,-83.99 177.12,-75.65"/>
<polygon fill="midnightblue" stroke="midnightblue" points="128.5,-103.86 122.12,-112.32 132.38,-109.69 128.5,-103.86"/>
</g>
<!-- Node3&#45;&gt;Node6 -->
<g id="edge5" class="edge">
<title>Node3&#45;&gt;Node6</title>
<path fill="none" stroke="midnightblue" d="M90.27,-105.82C78.27,-96.15 63.13,-83.95 53.07,-75.83"/>
<polygon fill="midnightblue" stroke="midnightblue" points="88.36,-108.77 98.34,-112.32 92.75,-103.32 88.36,-108.77"/>
</g>
<!-- Node3&#45;&gt;Node7 -->
<g id="edge6" class="edge">
<title>Node3&#45;&gt;Node7</title>
<path fill="none" stroke="midnightblue" d="M118.74,-103.23C127.37,-88.77 141.25,-68.74 158.11,-56 183.52,-36.78 218.16,-24.77 242.95,-18.04"/>
<polygon fill="midnightblue" stroke="midnightblue" points="115.55,-101.77 113.63,-112.19 121.63,-105.24 115.55,-101.77"/>
</g>
<!-- Node8&#45;&gt;Node5 -->
<g id="edge8" class="edge">
<title>Node8&#45;&gt;Node5</title>
<path fill="none" stroke="midnightblue" d="M225.03,-104.72C216.22,-95.2 205.44,-83.56 198.21,-75.75"/>
<polygon fill="midnightblue" stroke="midnightblue" points="222.49,-107.12 231.85,-112.08 227.62,-102.37 222.49,-107.12"/>
</g>
<!-- Node8&#45;&gt;Node9 -->
<g id="edge9" class="edge">
<title>Node8&#45;&gt;Node9</title>
<path fill="none" stroke="midnightblue" d="M251.08,-103.57C256.93,-94.27 263.88,-83.25 268.6,-75.75"/>
<polygon fill="midnightblue" stroke="midnightblue" points="248.09,-101.76 245.72,-112.08 254.01,-105.49 248.09,-101.76"/>
</g>
<!-- Node9&#45;&gt;Node4 -->
<g id="edge10" class="edge">
<title>Node9&#45;&gt;Node4</title>
<path fill="none" stroke="midnightblue" d="M236.85,-53.44C204.04,-43.26 157.02,-28.66 127.55,-19.52"/>
<polygon fill="midnightblue" stroke="midnightblue" points="235.95,-56.82 246.54,-56.44 238.02,-50.14 235.95,-56.82"/>
</g>
<!-- Node9&#45;&gt;Node7 -->
<g id="edge11" class="edge">
<title>Node9&#45;&gt;Node7</title>
<path fill="none" stroke="midnightblue" d="M274.11,-45.8C274.11,-36.91 274.11,-26.78 274.11,-19.75"/>
<polygon fill="midnightblue" stroke="midnightblue" points="270.61,-46.08 274.11,-56.08 277.61,-46.08 270.61,-46.08"/>
</g>
<!-- Node11 -->
<g id="node11" class="node">
<title>Node11</title>
<g id="a_node11"><a xlink:href="multimap_8hpp.html" target="_top" xlink:title=" ">
<polygon fill="none" stroke="black" points="373.11,-56.5 373.11,-75.5 447.11,-75.5 447.11,-56.5 373.11,-56.5"/>
<text text-anchor="middle" x="410.11" y="-63.5" font-family="Helvetica,sans-Serif" font-size="10.00">multimap.hpp</text>
</a>
</g>
</g>
<!-- Node10&#45;&gt;Node11 -->
<g id="edge15" class="edge">
<title>Node10&#45;&gt;Node11</title>
<path fill="none" stroke="midnightblue" d="M407.51,-102.1C408.17,-93.14 408.93,-82.86 409.46,-75.75"/>
<polygon fill="midnightblue" stroke="midnightblue" points="404.02,-101.85 406.77,-112.08 411,-102.37 404.02,-101.85"/>
</g>
</g>
</svg>
