<?xml version="1.0" encoding="UTF-8" standalone="no"?>
<!DOCTYPE svg PUBLIC "-//W3C//DTD SVG 1.1//EN"
 "http://www.w3.org/Graphics/SVG/1.1/DTD/svg11.dtd">
<!-- Generated by graphviz version 2.49.3 (20211027.1534)
 -->
<!-- Title: type_traits.hpp Pages: 1 -->
<svg width="455pt" height="252pt"
 viewBox="0.00 0.00 455.12 252.00" xmlns="http://www.w3.org/2000/svg" xmlns:xlink="http://www.w3.org/1999/xlink">
<g id="graph0" class="graph" transform="scale(1 1) rotate(0) translate(4 248)">
<title>type_traits.hpp</title>
<!-- Node1 -->
<g id="node1" class="node">
<title>Node1</title>
<g id="a_node1"><a xlink:title=" ">
<polygon fill="#bfbfbf" stroke="black" points="231.12,-224.5 231.12,-243.5 311.12,-243.5 311.12,-224.5 231.12,-224.5"/>
<text text-anchor="middle" x="271.12" y="-231.5" font-family="Helvetica,sans-Serif" font-size="10.00">type_traits.hpp</text>
</a>
</g>
</g>
<!-- Node2 -->
<g id="node2" class="node">
<title>Node2</title>
<g id="a_node2"><a xlink:href="iterator_8hpp.html" target="_top" xlink:title=" ">
<polygon fill="none" stroke="black" points="208.62,-168.5 208.62,-187.5 273.62,-187.5 273.62,-168.5 208.62,-168.5"/>
<text text-anchor="middle" x="241.12" y="-175.5" font-family="Helvetica,sans-Serif" font-size="10.00">iterator.hpp</text>
</a>
</g>
</g>
<!-- Node1&#45;&gt;Node2 -->
<g id="edge1" class="edge">
<title>Node1&#45;&gt;Node2</title>
<path fill="none" stroke="midnightblue" d="M261.27,-215.27C256.14,-206.05 250.1,-195.17 245.98,-187.75"/>
<polygon fill="midnightblue" stroke="midnightblue" points="258.25,-217.04 266.16,-224.08 264.37,-213.64 258.25,-217.04"/>
</g>
<!-- Node10 -->
<g id="node10" class="node">
<title>Node10</title>
<g id="a_node10"><a xlink:href="rbtree_8hpp.html" target="_top" xlink:title=" ">
<polygon fill="none" stroke="black" points="373.62,-112.5 373.62,-131.5 432.62,-131.5 432.62,-112.5 373.62,-112.5"/>
<text text-anchor="middle" x="403.12" y="-119.5" font-family="Helvetica,sans-Serif" font-size="10.00">rbtree.hpp</text>
</a>
</g>
</g>
<!-- Node1&#45;&gt;Node10 -->
<g id="edge19" class="edge">
<title>Node1&#45;&gt;Node10</title>
<path fill="none" stroke="midnightblue" d="M289.34,-217.82C317.45,-194.39 370.49,-150.19 392.81,-131.59"/>
<polygon fill="midnightblue" stroke="midnightblue" points="286.92,-215.28 281.48,-224.37 291.4,-220.66 286.92,-215.28"/>
</g>
<!-- Node3 -->
<g id="node3" class="node">
<title>Node3</title>
<g id="a_node3"><a xlink:href="algorithm_8hpp.html" target="_top" xlink:title=" ">
<polygon fill="none" stroke="black" points="73.12,-112.5 73.12,-131.5 147.12,-131.5 147.12,-112.5 73.12,-112.5"/>
<text text-anchor="middle" x="110.12" y="-119.5" font-family="Helvetica,sans-Serif" font-size="10.00">algorithm.hpp</text>
</a>
</g>
</g>
<!-- Node2&#45;&gt;Node3 -->
<g id="edge2" class="edge">
<title>Node2&#45;&gt;Node3</title>
<path fill="none" stroke="midnightblue" d="M210.8,-164.5C186.24,-154.38 152.3,-140.39 130.78,-131.52"/>
<polygon fill="midnightblue" stroke="midnightblue" points="209.78,-167.87 220.36,-168.44 212.45,-161.4 209.78,-167.87"/>
</g>
<!-- Node4 -->
<g id="node4" class="node">
<title>Node4</title>
<g id="a_node4"><a xlink:href="deque_8hpp.html" target="_top" xlink:title=" ">
<polygon fill="none" stroke="black" points="69.62,-0.5 69.62,-19.5 130.62,-19.5 130.62,-0.5 69.62,-0.5"/>
<text text-anchor="middle" x="100.12" y="-7.5" font-family="Helvetica,sans-Serif" font-size="10.00">deque.hpp</text>
</a>
</g>
</g>
<!-- Node2&#45;&gt;Node4 -->
<g id="edge12" class="edge">
<title>Node2&#45;&gt;Node4</title>
<path fill="none" stroke="midnightblue" d="M198.3,-175.19C156.76,-171.66 93.38,-161.42 47.12,-132 20.41,-115.02 13.46,-105.91 3.12,-76 0.21,-67.6 -1.67,-63.49 3.12,-56 17.6,-33.31 46.8,-21.89 69.39,-16.25"/>
<polygon fill="midnightblue" stroke="midnightblue" points="198.14,-178.69 208.37,-175.95 198.66,-171.71 198.14,-178.69"/>
</g>
<!-- Node5 -->
<g id="node5" class="node">
<title>Node5</title>
<g id="a_node5"><a xlink:href="list_8hpp.html" target="_top" xlink:title=" ">
<polygon fill="none" stroke="black" points="166.62,-56.5 166.62,-75.5 213.62,-75.5 213.62,-56.5 166.62,-56.5"/>
<text text-anchor="middle" x="190.12" y="-63.5" font-family="Helvetica,sans-Serif" font-size="10.00">list.hpp</text>
</a>
</g>
</g>
<!-- Node2&#45;&gt;Node5 -->
<g id="edge13" class="edge">
<title>Node2&#45;&gt;Node5</title>
<path fill="none" stroke="midnightblue" d="M219.65,-162.32C210.07,-154.52 199.71,-144.05 194.12,-132 185.55,-113.54 187.06,-88.9 188.7,-75.9"/>
<polygon fill="midnightblue" stroke="midnightblue" points="217.65,-165.2 227.73,-168.47 221.89,-159.63 217.65,-165.2"/>
</g>
<!-- Node6 -->
<g id="node6" class="node">
<title>Node6</title>
<g id="a_node6"><a xlink:href="stack_8hpp.html" target="_top" xlink:title=" ">
<polygon fill="none" stroke="black" points="12.62,-56.5 12.62,-75.5 71.62,-75.5 71.62,-56.5 12.62,-56.5"/>
<text text-anchor="middle" x="42.12" y="-63.5" font-family="Helvetica,sans-Serif" font-size="10.00">stack.hpp</text>
</a>
</g>
</g>
<!-- Node2&#45;&gt;Node6 -->
<g id="edge16" class="edge">
<title>Node2&#45;&gt;Node6</title>
<path fill="none" stroke="midnightblue" d="M198.2,-177.17C158.59,-175.02 100.54,-165.71 64.12,-132 47.85,-116.95 43.61,-89.46 42.51,-75.55"/>
<polygon fill="midnightblue" stroke="midnightblue" points="198.22,-180.67 208.35,-177.58 198.5,-173.67 198.22,-180.67"/>
</g>
<!-- Node7 -->
<g id="node7" class="node">
<title>Node7</title>
<g id="a_node7"><a xlink:href="vector_8hpp.html" target="_top" xlink:title=" ">
<polygon fill="none" stroke="black" points="243.12,-0.5 243.12,-19.5 305.12,-19.5 305.12,-0.5 243.12,-0.5"/>
<text text-anchor="middle" x="274.12" y="-7.5" font-family="Helvetica,sans-Serif" font-size="10.00">vector.hpp</text>
</a>
</g>
</g>
<!-- Node2&#45;&gt;Node7 -->
<g id="edge18" class="edge">
<title>Node2&#45;&gt;Node7</title>
<path fill="none" stroke="midnightblue" d="M266.53,-163.22C278.95,-155.42 293.29,-144.7 303.12,-132 319.48,-110.85 320.14,-102.27 325.12,-76 326.77,-67.27 328.77,-64.1 325.12,-56 317.93,-40.07 302.01,-27.52 289.85,-19.76"/>
<polygon fill="midnightblue" stroke="midnightblue" points="264.71,-160.23 257.92,-168.36 268.3,-166.24 264.71,-160.23"/>
</g>
<!-- Node8 -->
<g id="node8" class="node">
<title>Node8</title>
<g id="a_node8"><a xlink:href="construct_8hpp.html" target="_top" xlink:title=" ">
<polygon fill="none" stroke="black" points="203.62,-112.5 203.62,-131.5 278.62,-131.5 278.62,-112.5 203.62,-112.5"/>
<text text-anchor="middle" x="241.12" y="-119.5" font-family="Helvetica,sans-Serif" font-size="10.00">construct.hpp</text>
</a>
</g>
</g>
<!-- Node2&#45;&gt;Node8 -->
<g id="edge7" class="edge">
<title>Node2&#45;&gt;Node8</title>
<path fill="none" stroke="midnightblue" d="M241.12,-157.8C241.12,-148.91 241.12,-138.78 241.12,-131.75"/>
<polygon fill="midnightblue" stroke="midnightblue" points="237.62,-158.08 241.12,-168.08 244.62,-158.08 237.62,-158.08"/>
</g>
<!-- Node9 -->
<g id="node9" class="node">
<title>Node9</title>
<g id="a_node9"><a xlink:href="uninitialized_8hpp.html" target="_top" xlink:title=" ">
<polygon fill="none" stroke="black" points="231.62,-56.5 231.62,-75.5 316.62,-75.5 316.62,-56.5 231.62,-56.5"/>
<text text-anchor="middle" x="274.12" y="-63.5" font-family="Helvetica,sans-Serif" font-size="10.00">uninitialized.hpp</text>
</a>
</g>
</g>
<!-- Node2&#45;&gt;Node9 -->
<g id="edge17" class="edge">
<title>Node2&#45;&gt;Node9</title>
<path fill="none" stroke="midnightblue" d="M262.83,-162.07C272.17,-154.31 282.09,-143.95 287.12,-132 295.15,-112.91 285.46,-88.53 279,-75.74"/>
<polygon fill="midnightblue" stroke="midnightblue" points="260.68,-159.31 254.9,-168.19 264.96,-164.85 260.68,-159.31"/>
</g>
<!-- Node2&#45;&gt;Node10 -->
<g id="edge14" class="edge">
<title>Node2&#45;&gt;Node10</title>
<path fill="none" stroke="midnightblue" d="M276.6,-165.17C307.11,-155 350.36,-140.59 377.57,-131.52"/>
<polygon fill="midnightblue" stroke="midnightblue" points="275.17,-161.96 266.79,-168.44 277.38,-168.6 275.17,-161.96"/>
</g>
<!-- Node3&#45;&gt;Node4 -->
<g id="edge3" class="edge">
<title>Node3&#45;&gt;Node4</title>
<path fill="none" stroke="midnightblue" d="M108.42,-102.35C106.23,-78.25 102.51,-37.31 100.9,-19.59"/>
<polygon fill="midnightblue" stroke="midnightblue" points="104.94,-102.73 109.33,-112.37 111.91,-102.09 104.94,-102.73"/>
</g>
<!-- Node3&#45;&gt;Node5 -->
<g id="edge4" class="edge">
<title>Node3&#45;&gt;Node5</title>
<path fill="none" stroke="midnightblue" d="M131.42,-106.62C146.03,-96.76 164.94,-83.99 177.3,-75.65"/>
<polygon fill="midnightblue" stroke="midnightblue" points="129.3,-103.83 122.97,-112.32 133.22,-109.63 129.3,-103.83"/>
</g>
<!-- Node3&#45;&gt;Node6 -->
<g id="edge5" class="edge">
<title>Node3&#45;&gt;Node6</title>
<path fill="none" stroke="midnightblue" d="M91.36,-106.1C79.12,-96.38 63.56,-84.03 53.24,-75.83"/>
<polygon fill="midnightblue" stroke="midnightblue" points="89.18,-108.85 99.19,-112.32 93.54,-103.36 89.18,-108.85"/>
</g>
<!-- Node3&#45;&gt;Node7 -->
<g id="edge6" class="edge">
<title>Node3&#45;&gt;Node7</title>
<path fill="none" stroke="midnightblue" d="M119.19,-103.2C127.36,-88.73 140.62,-68.7 157.12,-56 182.73,-36.29 218,-24.3 243.1,-17.71"/>
<polygon fill="midnightblue" stroke="midnightblue" points="116.02,-101.71 114.36,-112.18 122.18,-105.03 116.02,-101.71"/>
</g>
<!-- Node8&#45;&gt;Node5 -->
<g id="edge8" class="edge">
<title>Node8&#45;&gt;Node5</title>
<path fill="none" stroke="midnightblue" d="M225.74,-104.72C216.75,-95.2 205.76,-83.56 198.38,-75.75"/>
<polygon fill="midnightblue" stroke="midnightblue" points="223.29,-107.22 232.7,-112.08 228.37,-102.41 223.29,-107.22"/>
</g>
<!-- Node8&#45;&gt;Node9 -->
<g id="edge9" class="edge">
<title>Node8&#45;&gt;Node9</title>
<path fill="none" stroke="midnightblue" d="M251.95,-103.27C257.59,-94.05 264.24,-83.17 268.77,-75.75"/>
<polygon fill="midnightblue" stroke="midnightblue" points="248.8,-101.73 246.57,-112.08 254.77,-105.38 248.8,-101.73"/>
</g>
<!-- Node9&#45;&gt;Node4 -->
<g id="edge10" class="edge">
<title>Node9&#45;&gt;Node4</title>
<path fill="none" stroke="midnightblue" d="M236.86,-53.44C204.05,-43.26 157.04,-28.66 127.56,-19.52"/>
<polygon fill="midnightblue" stroke="midnightblue" points="235.96,-56.82 246.55,-56.44 238.03,-50.14 235.96,-56.82"/>
</g>
<!-- Node9&#45;&gt;Node7 -->
<g id="edge11" class="edge">
<title>Node9&#45;&gt;Node7</title>
<path fill="none" stroke="midnightblue" d="M274.12,-45.8C274.12,-36.91 274.12,-26.78 274.12,-19.75"/>
<polygon fill="midnightblue" stroke="midnightblue" points="270.62,-46.08 274.12,-56.08 277.62,-46.08 270.62,-46.08"/>
</g>
<!-- Node11 -->
<g id="node11" class="node">
<title>Node11</title>
<g id="a_node11"><a xlink:href="multimap_8hpp.html" target="_top" xlink:title=" ">
<polygon fill="none" stroke="black" points="373.12,-56.5 373.12,-75.5 447.12,-75.5 447.12,-56.5 373.12,-56.5"/>
<text text-anchor="middle" x="410.12" y="-63.5" font-family="Helvetica,sans-Serif" font-size="10.00">multimap.hpp</text>
</a>
</g>
</g>
<!-- Node10&#45;&gt;Node11 -->
<g id="edge15" class="edge">
<title>Node10&#45;&gt;Node11</title>
<path fill="none" stroke="midnightblue" d="M405.57,-102.1C406.73,-93.14 408.06,-82.86 408.98,-75.75"/>
<polygon fill="midnightblue" stroke="midnightblue" points="402.09,-101.72 404.27,-112.08 409.03,-102.62 402.09,-101.72"/>
</g>
</g>
</svg>
